custom-analysis
version=1
nRows=5
nColumns=98
inDegrees=no

This file contains tibia displacement and acting force.

Units are S.I. units (seconds, meters, Newtons, ...)
Angles are in degrees.

endheader
time	APT	SIT	knee_angle	aACL_R_force	pACL_R_force	aPCL_R_force	pPCL_R_force	aMCL_R_force	mMCL_R_force	pMCL_R_force	aLCL_R_force	mLCL_R_force	pLCL_R_force	aPCL_L_force	pPCL_L_force	aMCL_L_force	aLCL_L_force	aACL_R_length	pACL_R_length	aPCL_R_length	pPCL_R_length	aMCL_R_length	mMCL_R_length	pMCL_R_length	aLCL_R_length	mLCL_R_length	pLCL_R_length	aPCL_L_length	pPCL_L_length	aMCL_L_length	aLCL_L_length	aACL_R_strain	pACL_R_strain	aPCL_R_strain	pPCL_R_strain	aMCL_R_strain	mMCL_R_strain	pMCL_R_strain	aLCL_R_strain	mLCL_R_strain	pLCL_R_strain	aPCL_L_strain	pPCL_L_strain	aMCL_L_strain	aLCL_L_strain	femur_lat_meniscii_r.femur_lat_r.force.X	femur_lat_meniscii_r.femur_lat_r.force.Y	femur_lat_meniscii_r.femur_lat_r.force.Z	femur_lat_meniscii_r.femur_lat_r.torque.X	femur_lat_meniscii_r.femur_lat_r.torque.Y	femur_lat_meniscii_r.femur_lat_r.torque.Z	femur_lat_meniscii_r.meniscus_lat_r.force.X	femur_lat_meniscii_r.meniscus_lat_r.force.Y	femur_lat_meniscii_r.meniscus_lat_r.force.Z	femur_lat_meniscii_r.meniscus_lat_r.torque.X	femur_lat_meniscii_r.meniscus_lat_r.torque.Y	femur_lat_meniscii_r.meniscus_lat_r.torque.Z	femur_med_meniscii_r.femur_med_r.force.X	femur_med_meniscii_r.femur_med_r.force.Y	femur_med_meniscii_r.femur_med_r.force.Z	femur_med_meniscii_r.femur_med_r.torque.X	femur_med_meniscii_r.femur_med_r.torque.Y	femur_med_meniscii_r.femur_med_r.torque.Z	femur_med_meniscii_r.meniscus_med_r.force.X	femur_med_meniscii_r.meniscus_med_r.force.Y	femur_med_meniscii_r.meniscus_med_r.force.Z	femur_med_meniscii_r.meniscus_med_r.torque.X	femur_med_meniscii_r.meniscus_med_r.torque.Y	femur_med_meniscii_r.meniscus_med_r.torque.Z	femur_med_tibia_r.tibia_upper_r.force.X	femur_med_tibia_r.tibia_upper_r.force.Y	femur_med_tibia_r.tibia_upper_r.force.Z	femur_med_tibia_r.tibia_upper_r.torque.X	femur_med_tibia_r.tibia_upper_r.torque.Y	femur_med_tibia_r.tibia_upper_r.torque.Z	femur_med_tibia_r.femur_med_r.force.X	femur_med_tibia_r.femur_med_r.force.Y	femur_med_tibia_r.femur_med_r.force.Z	femur_med_tibia_r.femur_med_r.torque.X	femur_med_tibia_r.femur_med_r.torque.Y	femur_med_tibia_r.femur_med_r.torque.Z	femur_lat_tibia_r.tibia_upper_r.force.X	femur_lat_tibia_r.tibia_upper_r.force.Y	femur_lat_tibia_r.tibia_upper_r.force.Z	femur_lat_tibia_r.tibia_upper_r.torque.X	femur_lat_tibia_r.tibia_upper_r.torque.Y	femur_lat_tibia_r.tibia_upper_r.torque.Z	femur_lat_tibia_r.femur_lat_r.force.X	femur_lat_tibia_r.femur_lat_r.force.Y	femur_lat_tibia_r.femur_lat_r.force.Z	femur_lat_tibia_r.femur_lat_r.torque.X	femur_lat_tibia_r.femur_lat_r.torque.Y	femur_lat_tibia_r.femur_lat_r.torque.Z	femur_lat_meniscii_force_r	femur_med_meniscii_force_r	femur_lat_tibia_force_r	femur_med_tibia_force_r
      0.20870376	      0.01374672	      0.02584329	     80.46697117	     -4.84099173	      0.00000000	    950.49684241	    594.98761983	     28.24789990	      0.00000000	      0.00000000	      0.00000000	      0.00000000	      0.00000000	      0.00000000	      0.00000000	      0.00000001	      0.00000000	      0.03109662	      0.02440596	      0.03708903	      0.03385966	      0.06131968	      0.05976815	      0.05639934	      0.05049586	      0.04506714	      0.04002976	      0.01525851	      0.01651186	      0.06550154	      0.04489616	      0.00293873	     -0.02604829	      0.19275371	      0.13289230	      0.02153500	     -0.00042395	     -0.03965154	     -0.09792099	     -0.19978235	     -0.23523710	      0.00000079	     -0.32847694	      0.00000060	     -0.00000086	    249.88725301	    163.04520935	     26.05216612	    -14.21996257	      5.91756143	     99.16753320	   -249.88725301	   -163.04520935	    -26.05216612	      4.29886339	     -7.15461720	      3.73570440	      0.50662351	     -0.00469598	     -0.10245832	      0.04083396	     -0.00829160	      0.20165460	     -0.50662351	      0.00469598	      0.10245832	     -0.00045483	      0.00997147	     -0.00206972	   -995.32867351	   -399.05283032	    296.89101735	     -8.82641390	     23.34439635	      1.97393723	    995.32867351	    399.05283032	   -296.89101735	    126.71459650	    -17.46572682	    401.14835727	    -89.00208269	    -43.57259477	    -25.31204001	      1.38190964	     -3.05983418	      0.40780671	     89.00208269	     43.57259477	     25.31204001	    -11.26675752	      2.18681316	     35.85208542	    299.50975755	      0.51690148	    102.27727562	   1112.68441433
      0.20929454	      0.01372352	      0.02595781	     80.78399151	     -4.99290190	      0.00000000	    955.01932252	    598.57233145	     27.92391253	      0.00000000	      0.00000000	      0.00000000	      0.00000000	      0.00000000	      0.00000000	      0.00000000	      0.00000001	      0.00000000	      0.03108885	      0.02441373	      0.03711424	      0.03388011	      0.06133988	      0.05977955	      0.05641440	      0.05045610	      0.04502306	      0.03999183	      0.01525851	      0.01651186	      0.06550154	      0.04489616	      0.00268810	     -0.02573832	      0.19356443	      0.13357664	      0.02187154	     -0.00023331	     -0.03939522	     -0.09863121	     -0.20056498	     -0.23596161	      0.00000079	     -0.32847694	      0.00000060	     -0.00000086	    250.32215234	    163.44408100	     25.30892112	    -13.92382850	      5.91721342	     99.31577614	   -250.32215234	   -163.44408100	    -25.30892112	      4.29698721	     -7.14169298	      3.80776503	      0.36425540	     -0.01798739	     -0.08563338	      0.03381130	     -0.00588131	      0.14499343	     -0.36425540	      0.01798739	      0.08563338	     -0.00008366	      0.00740969	     -0.00184853	   -990.63745288	   -393.33623075	    297.19026065	     -8.68449315	     23.27401989	      2.04198062	    990.63745288	    393.33623075	   -297.19026065	    126.71995169	    -17.37937011	    399.21250554	   -100.75517228	    -48.61418224	    -28.49762275	      1.54308667	     -3.46382301	      0.45703705	    100.75517228	     48.61418224	     28.49762275	    -12.67516240	      2.47602285	     40.58622172	    300.02614728	      0.37461796	    115.44287747	   1106.52519379
      0.20988533	      0.01369902	      0.02607199	     81.10072741	     -4.62184116	      0.00000000	    959.37689303	    601.59807707	     27.92651385	      0.00000000	      0.00000000	      0.00000000	      0.00000000	      0.00000000	      0.00000000	      0.00000000	      0.00000001	      0.00000000	      0.03108109	      0.02442185	      0.03713951	      0.03390077	      0.06135982	      0.05979097	      0.05642978	      0.05041636	      0.04497916	      0.03995431	      0.01525851	      0.01651186	      0.06550154	      0.04489616	      0.00243797	     -0.02541438	      0.19437701	      0.13426792	      0.02220372	     -0.00004226	     -0.03913331	     -0.09934116	     -0.20134455	     -0.23667839	      0.00000079	     -0.32847694	      0.00000060	     -0.00000086	    250.63278711	    160.60282712	     24.52138596	    -13.52393041	      5.91810016	     99.45401786	   -250.63278711	   -160.60282712	    -24.52138596	      4.20202252	     -7.12855217	      3.75294503	      0.24990394	     -0.01943816	     -0.06555338	      0.02577601	     -0.00398954	      0.09948947	     -0.24990394	      0.01943816	      0.06555338	      0.00003766	      0.00522073	     -0.00144715	   -985.24484786	   -387.61330836	    298.46466416	     -8.56347085	     23.23303027	      2.11668935	    985.24484786	    387.61330836	   -298.46466416	    127.13071977	    -17.29494008	    396.99070331	   -112.13374370	    -53.20181122	    -31.69805178	      1.69246831	     -3.86097857	      0.49694471	    112.13374370	     53.20181122	     31.69805178	    -14.07909948	      2.75793816	     45.17283600	    298.68270861	      0.25908891	    128.09830475	   1100.01483754
      0.21010788	      0.01368983	      0.02611490	     81.22004017	     -4.72646401	      0.00000000	    961.09121706	    603.02947035	     27.71484047	     14.10626037	      0.00000000	      0.00000000	      0.00000000	      0.00000000	      0.00000000	      0.00000000	      0.00000001	      0.00000000	      0.03107842	      0.02442516	      0.03714893	      0.03390847	      0.06136734	      0.05979531	      0.05643566	      0.05040142	      0.04496267	      0.03994025	      0.01525851	      0.01651186	      0.06550154	      0.04489616	      0.00235191	     -0.02528218	      0.19468000	      0.13452542	      0.02232897	      0.00003035	     -0.03903318	     -0.09960812	     -0.20163727	     -0.23694702	      0.00000079	     -0.32847694	      0.00000060	     -0.00000086	    250.26500398	    160.81286972	     24.03655625	    -13.33620402	      5.90700553	     99.29346696	   -250.26500398	   -160.81286972	    -24.03655625	      4.20622331	     -7.10602481	      3.78837077	      0.21454726	     -0.01569927	     -0.06101007	      0.02402381	     -0.00344932	      0.08540076	     -0.21454726	      0.01569927	      0.06101007	      0.00000849	      0.00463414	     -0.00119395	   -983.37472281	   -385.96248880	    298.64762884	     -8.51828630	     23.20950161	      2.15961770	    983.37472281	    385.96248880	   -298.64762884	    127.16993216	    -17.26356971	    396.21600812	   -116.24300760	    -54.83340054	    -33.11684345	      1.74962122	     -4.01533335	      0.51184521	    116.24300760	     54.83340054	     33.11684345	    -14.69329178	      2.86325900	     46.82912046	    298.44783015	      0.22360506	    132.72476766	   1097.80840516
      0.21024652	      0.01368397	      0.02614163	     81.29433580	     -4.75626457	      0.00000000	    962.02447481	    603.55791181	     27.44147951	     13.88759349	      0.00000000	      0.00000000	      0.00000000	      0.00000000	      0.00000000	      0.00000000	      0.00000001	      0.00000000	      0.03107673	      0.02442723	      0.03715479	      0.03391326	      0.06137196	      0.05979798	      0.05643931	      0.05039207	      0.04495238	      0.03993149	      0.01525851	      0.01651186	      0.06550154	      0.04489616	      0.00229722	     -0.02519973	      0.19486829	      0.13468583	      0.02240596	      0.00007498	     -0.03897102	     -0.09977500	     -0.20181998	     -0.23711436	      0.00000079	     -0.32847694	      0.00000060	     -0.00000086	    251.18813121	    161.78608920	     23.56873651	    -13.17016253	      5.92342227	     99.64998177	   -251.18813121	   -161.78608920	    -23.56873651	      4.22703021	     -7.11335006	      3.83127441	      0.19478982	     -0.01315205	     -0.05736284	      0.02261068	     -0.00313308	      0.07752399	     -0.19478982	      0.01315205	      0.05736284	     -0.00001007	      0.00426204	     -0.00103684	   -982.63147030	   -384.30983367	    298.74494969	     -8.48185153	     23.19853032	      2.15625618	    982.63147030	    384.30983367	   -298.74494969	    127.17812888	    -17.24914745	    395.91274546	   -118.84923087	    -56.08167409	    -33.75681292	      1.78686893	     -4.10284677	      0.53003533	    118.84923087	     56.08167409	     33.75681292	    -14.98087622	      2.92666914	     47.87677468	    299.70936132	      0.20348599	    135.68277807	   1096.58889272
